<svg width="284" height="284" viewBox="0 0 284 284" fill="none" xmlns="http://www.w3.org/2000/svg">
<path d="M283.575 0H0V283.575H283.575V0Z" fill="#333333"/>
<path d="M62.8471 198.862L62.8812 198.964C62.9207 201.438 62.1733 203.335 60.6333 204.643C59.0875 205.957 57.0546 206.608 54.5348 206.613C51.8903 206.608 49.7727 205.634 48.1816 203.68C46.5903 201.732 45.7918 199.167 45.7918 195.991V192.378C45.7918 189.213 46.5903 186.653 48.1816 184.694C49.7727 182.741 51.8903 181.761 54.5348 181.761C57.0546 181.761 59.0874 182.418 60.6333 183.732C62.1733 185.051 62.9207 186.931 62.8812 189.377L62.8471 189.473H62.0828C62.0828 187.293 61.4033 185.617 60.05 184.434C58.6967 183.25 56.8564 182.656 54.5348 182.656C52.1792 182.656 50.2824 183.545 48.844 185.329C47.406 187.107 46.6866 189.445 46.6866 192.344V195.991C46.6866 198.924 47.406 201.28 48.844 203.052C50.2824 204.83 52.1792 205.713 54.5348 205.713C56.8564 205.713 58.6967 205.147 60.05 204.009C61.4033 202.865 62.0828 201.155 62.0828 198.862H62.8471V198.862ZM81.4596 199.048H69.6649L66.958 206.262H65.9843L75.0045 182.106H76.1028L85.1402 206.262H84.1662L81.4596 199.048ZM69.9989 198.148H81.1256L76.0691 184.632L75.6047 183.222H75.5027L75.0555 184.632L69.999 198.148H69.9989ZM89.8344 194.932V206.279H88.9398V182.123H96.8049C99.3473 182.123 101.307 182.673 102.677 183.777C104.047 184.875 104.733 186.483 104.733 188.596C104.733 189.955 104.302 191.189 103.43 192.304C102.564 193.414 101.38 194.133 99.8742 194.467C101.612 194.768 102.852 195.402 103.606 196.376C104.359 197.35 104.733 198.59 104.733 200.107V202.378C104.733 203.131 104.823 203.805 105.01 204.405C105.191 205 105.491 205.487 105.91 205.866V206.279H105.032C104.636 205.826 104.336 205.266 104.138 204.598C103.94 203.924 103.838 203.177 103.838 202.35V200.141C103.838 198.505 103.277 197.225 102.156 196.308C101.035 195.39 99.4326 194.932 97.3544 194.932H89.8345L89.8344 194.932ZM89.8344 194.037H96.6407C99.1039 194.037 100.922 193.516 102.088 192.474C103.255 191.438 103.838 190.141 103.838 188.596C103.838 186.795 103.249 185.413 102.071 184.456C100.893 183.499 99.1379 183.024 96.8049 183.024H89.8344V194.037ZM124.375 199.048H112.581L109.874 206.262H108.9L117.92 182.106H119.019L128.056 206.262H127.082L124.375 199.048ZM112.915 198.148H124.041L118.985 184.632L118.521 183.222H118.419L117.971 184.632L112.915 198.148H112.915ZM149.341 206.262H148.447L132.954 183.766L132.852 183.799V206.262H131.941V182.106H132.852L148.345 204.552L148.447 204.518V182.106H149.341V206.262ZM172.999 203.012C172.49 203.873 171.516 204.688 170.071 205.458C168.628 206.228 166.855 206.608 164.755 206.613C161.986 206.608 159.743 205.628 158.028 203.658C156.306 201.687 155.446 199.128 155.446 195.979V192.027C155.446 188.998 156.284 186.529 157.954 184.62C159.624 182.712 161.793 181.761 164.472 181.761C167.048 181.761 169.103 182.423 170.632 183.748C172.167 185.079 172.903 186.784 172.846 188.862L172.818 188.958H172.071C172.071 187.112 171.408 185.6 170.089 184.422C168.764 183.244 166.895 182.656 164.472 182.656C162.025 182.656 160.06 183.528 158.571 185.266C157.088 187.01 156.34 189.252 156.34 191.993V195.979C156.34 198.85 157.11 201.194 158.65 203.001C160.185 204.813 162.218 205.713 164.755 205.713C166.691 205.713 168.282 205.402 169.539 204.767C170.796 204.139 171.652 203.414 172.104 202.599V195.73H164.721V194.813H172.999V203.012H172.999ZM196.787 195.991C196.787 199.258 195.983 201.84 194.369 203.748C192.755 205.656 190.53 206.608 187.699 206.613C184.856 206.608 182.625 205.656 181.006 203.748C179.386 201.84 178.577 199.258 178.577 195.991V192.378C178.577 189.128 179.381 186.546 180.989 184.632C182.597 182.718 184.822 181.761 187.665 181.761C190.496 181.761 192.727 182.718 194.352 184.632C195.977 186.546 196.787 189.128 196.787 192.378V195.991H196.787ZM195.892 192.344C195.892 189.383 195.179 187.027 193.752 185.277C192.325 183.528 190.298 182.656 187.665 182.656C185.043 182.656 183.027 183.528 181.612 185.277C180.196 187.027 179.488 189.383 179.488 192.344V195.991C179.488 198.98 180.196 201.347 181.617 203.091C183.038 204.841 185.066 205.713 187.699 205.713C190.332 205.713 192.353 204.847 193.769 203.103C195.184 201.359 195.892 198.992 195.892 195.991V192.344ZM203.225 205.368H216.283V206.262H202.314V182.106H203.225V205.368ZM234.103 199.048H222.308L219.601 206.262H218.627L227.647 182.106H228.746L237.783 206.262H236.809L234.103 199.048ZM222.642 198.148H233.769L228.712 184.632L228.248 183.222H228.146L227.698 184.632L222.642 198.148H222.642Z" fill="#00AFEF"/>
<path fill-rule="evenodd" clip-rule="evenodd" d="M89.8209 241.166V219.694L89.8212 219.694H96.2036C97.4393 219.694 98.5807 219.915 99.6281 220.358C100.676 220.801 101.63 221.466 102.49 222.351C103.348 223.234 103.993 224.241 104.422 225.369C104.852 226.497 105.068 227.747 105.068 229.116V231.744C105.068 233.12 104.852 234.373 104.423 235.502C103.993 236.631 103.349 237.638 102.49 238.519C101.63 239.402 100.676 240.064 99.6281 240.505C98.5807 240.946 97.4392 241.166 96.2036 241.166H89.8212L89.8209 241.166V241.166ZM90.6166 220.494V240.371H96.2036C98.4382 240.371 100.341 239.555 101.911 237.92C103.487 236.289 104.272 234.23 104.272 231.744V229.076C104.272 226.615 103.487 224.571 101.911 222.94C100.341 221.309 98.4382 220.494 96.2036 220.494H90.6166V220.494ZM111.409 241.166H110.614V219.694H111.409V241.166ZM140.356 241.166H139.561V219.694H140.356V241.166ZM160.675 220.494H153.155V241.166H152.36V220.494H144.307V219.694H160.675V220.494H160.675ZM174.612 234.753H164.128L161.722 241.166H160.856L168.875 219.694H169.851L177.884 241.166H177.018L174.612 234.753H174.612ZM164.425 233.953H174.316L169.821 221.939L169.408 220.685H169.318L168.92 221.939L164.425 233.953ZM182.148 240.371H193.754V241.166H181.337V219.694H182.147V240.371H182.148ZM99.6739 240.485L99.68 240.483C100.707 240.042 101.644 239.387 102.49 238.519C104.206 236.757 105.067 234.497 105.067 231.744V229.116C105.067 226.378 104.206 224.118 102.49 222.351C100.769 220.58 98.6749 219.694 96.2036 219.694H89.8212V241.166H96.2036C97.4574 241.166 98.6139 240.939 99.6739 240.485ZM90.6169 220.494V240.37H96.2036C97.321 240.37 98.3556 240.166 99.3064 239.758C100.257 239.35 101.126 238.737 101.911 237.919C102.699 237.104 103.289 236.181 103.682 235.153C104.075 234.123 104.272 232.987 104.272 231.744V229.076C104.272 227.845 104.075 226.719 103.682 225.697C103.289 224.675 102.698 223.756 101.911 222.941C101.126 222.125 100.257 221.513 99.3064 221.106C98.3556 220.699 97.321 220.494 96.2036 220.494H90.6169ZM111.409 241.166H110.614L110.614 241.166V219.694L110.614 219.694H111.409L111.41 219.694V241.166L111.409 241.166ZM133.028 238.277C132.802 238.659 132.471 239.033 132.038 239.395C131.605 239.756 131.067 240.109 130.425 240.451C129.784 240.793 129.068 241.049 128.281 241.22C127.493 241.39 126.632 241.476 125.699 241.478C124.469 241.476 123.354 241.257 122.358 240.819C121.362 240.382 120.481 239.727 119.719 238.851C118.955 237.976 118.38 236.968 117.998 235.831C117.615 234.693 117.424 233.425 117.424 232.025V228.512C117.424 227.166 117.61 225.944 117.982 224.847C118.353 223.75 118.912 222.776 119.654 221.928C120.396 221.081 121.25 220.445 122.215 220.021C123.18 219.598 124.257 219.386 125.447 219.386C126.593 219.386 127.622 219.534 128.535 219.828C129.448 220.123 130.245 220.565 130.924 221.153C131.606 221.744 132.11 222.419 132.438 223.177C132.766 223.934 132.917 224.775 132.892 225.698L132.867 225.784L132.866 225.784H132.202L132.202 225.784C132.202 224.964 132.054 224.217 131.761 223.546C131.467 222.874 131.027 222.276 130.44 221.753C129.851 221.229 129.141 220.837 128.31 220.575C127.479 220.314 126.525 220.182 125.447 220.182C124.36 220.182 123.38 220.376 122.506 220.763C121.632 221.15 120.865 221.731 120.203 222.503C119.543 223.278 119.046 224.166 118.716 225.163C118.386 226.159 118.22 227.265 118.22 228.482V232.025C118.22 233.302 118.391 234.461 118.733 235.502C118.739 235.518 118.744 235.533 118.749 235.549C118.396 234.496 118.22 233.321 118.22 232.025V228.482C118.22 226.046 118.884 224.053 120.203 222.502C121.526 220.957 123.273 220.182 125.447 220.182C127.602 220.182 129.263 220.705 130.44 221.752C131.613 222.799 132.202 224.143 132.202 225.784H132.866L132.892 225.698C132.942 223.851 132.288 222.336 130.923 221.153C129.565 219.976 127.737 219.386 125.447 219.386C123.066 219.386 121.139 220.232 119.654 221.928C118.169 223.625 117.424 225.819 117.424 228.512V232.025C117.424 234.824 118.189 237.099 119.719 238.85C121.244 240.602 123.238 241.473 125.699 241.478C127.566 241.473 129.142 241.136 130.425 240.451C131.709 239.767 132.575 239.042 133.027 238.277V230.988H125.669V231.804H132.232V237.909C131.83 238.634 131.069 239.278 129.952 239.837C128.835 240.401 127.42 240.678 125.699 240.678C123.444 240.678 121.637 239.877 120.273 238.267C119.792 237.703 119.396 237.08 119.084 236.398C119.396 237.079 119.793 237.702 120.273 238.266C120.955 239.072 121.748 239.675 122.652 240.076C123.556 240.477 124.572 240.677 125.699 240.677C126.56 240.677 127.344 240.608 128.052 240.469C128.76 240.329 129.394 240.118 129.952 239.837C130.51 239.558 130.979 239.257 131.359 238.936C131.739 238.614 132.031 238.271 132.232 237.909V231.804H125.669L125.669 231.804V230.988L125.669 230.988H133.028L133.028 230.988V238.277V238.277L133.028 238.277ZM118.75 235.553C118.76 235.582 118.77 235.611 118.78 235.64C118.77 235.611 118.76 235.582 118.75 235.553ZM118.785 235.655C118.794 235.681 118.803 235.707 118.813 235.733C118.803 235.707 118.794 235.681 118.785 235.655ZM118.821 235.754C118.829 235.778 118.838 235.802 118.847 235.826C118.838 235.802 118.829 235.778 118.821 235.754ZM118.857 235.851C118.865 235.874 118.874 235.897 118.882 235.92C118.874 235.897 118.865 235.874 118.857 235.851ZM118.893 235.947C118.902 235.969 118.911 235.992 118.92 236.015C118.911 235.992 118.902 235.969 118.893 235.947ZM118.93 236.04C118.939 236.063 118.949 236.087 118.958 236.11C118.949 236.087 118.939 236.063 118.93 236.04ZM118.967 236.131C118.978 236.156 118.988 236.181 118.998 236.205C118.988 236.181 118.978 236.156 118.967 236.131ZM119.006 236.222C119.017 236.248 119.028 236.274 119.04 236.301C119.028 236.274 119.017 236.248 119.006 236.222ZM119.044 236.311C119.057 236.339 119.07 236.368 119.083 236.396C119.07 236.368 119.057 236.339 119.044 236.311ZM140.356 241.166H139.561L139.56 241.166V219.694L139.561 219.693H140.356L140.356 219.694V241.166L140.356 241.166ZM160.675 220.494H153.156V241.166L153.156 241.166H152.36L152.36 241.166V220.494H144.307L144.307 220.494V219.694L144.307 219.693H160.675L160.676 219.694V220.494L160.675 220.494H160.675ZM174.612 234.754H164.129L161.723 241.166L161.722 241.166H160.857L160.856 241.166L168.874 219.694L168.875 219.694H169.851L169.851 219.694L177.885 241.166L177.884 241.166H177.019L177.018 241.166L174.612 234.754H174.612ZM164.426 233.953H174.315L169.821 221.939L169.408 220.686H169.318L168.92 221.939L164.426 233.953ZM182.148 240.37H193.754L193.755 240.371V241.166L193.754 241.166H181.337L181.337 241.166V219.694L181.337 219.694H182.148L182.148 219.694V240.37Z" fill="#F58634"/>
<path d="M89.821 241.166V219.694H96.2034C98.6746 219.694 100.768 220.58 102.49 222.351C104.206 224.118 105.067 226.378 105.067 229.116V231.743C105.067 234.497 104.206 236.756 102.49 238.518C100.768 240.285 98.6746 241.166 96.2034 241.166H89.821ZM90.6163 220.494V240.37H96.2033C98.438 240.37 100.34 239.555 101.911 237.919C103.486 236.288 104.272 234.23 104.272 231.743V229.076C104.272 226.614 103.486 224.571 101.911 222.94C100.34 221.309 98.438 220.494 96.2033 220.494H90.6163V220.494ZM111.409 241.166H110.614V219.694H111.409V241.166ZM133.027 238.277C132.574 239.042 131.708 239.766 130.425 240.451C129.141 241.135 127.566 241.473 125.699 241.478C123.237 241.473 121.244 240.602 119.719 238.85C118.189 237.099 117.424 234.824 117.424 232.025V228.512C117.424 225.819 118.169 223.625 119.654 221.928C121.138 220.232 123.066 219.386 125.447 219.386C127.737 219.386 129.564 219.975 130.923 221.153C132.287 222.336 132.942 223.851 132.891 225.698L132.866 225.784H132.202C132.202 224.143 131.613 222.799 130.44 221.752C129.262 220.705 127.601 220.182 125.447 220.182C123.272 220.182 121.526 220.957 120.202 222.502C118.884 224.053 118.219 226.046 118.219 228.482V232.025C118.219 234.577 118.904 236.661 120.273 238.267C121.637 239.877 123.444 240.677 125.699 240.677C127.42 240.677 128.834 240.4 129.952 239.837C131.069 239.278 131.829 238.634 132.232 237.909V231.804H125.668V230.988H133.027V238.277ZM140.355 241.166H139.56V219.694H140.355V241.166ZM160.675 220.494H153.155V241.166H152.36V220.494H144.307V219.694H160.675V220.494H160.675ZM174.612 234.753H164.128L161.722 241.166H160.856L168.874 219.694H169.851L177.884 241.166H177.018L174.612 234.753H174.612ZM164.425 233.953H174.315L169.821 221.939L169.408 220.685H169.317L168.92 221.939L164.425 233.953ZM182.147 240.37H193.754V241.166H181.337V219.694H182.147V240.37H182.147Z" fill="#F58634"/>
<path fill-rule="evenodd" clip-rule="evenodd" d="M59.4809 54.4189H163.022C165.721 54.4189 168.177 55.5257 169.96 57.3081C171.738 59.0863 172.842 61.5343 172.842 64.2219V132.947C172.842 135.634 171.738 138.082 169.96 139.86C168.177 141.643 165.721 142.749 163.022 142.749H59.4809C56.7822 142.749 54.326 141.643 52.5433 139.86C50.7654 138.082 49.6613 135.634 49.6613 132.947V64.2219C49.6613 61.5343 50.7651 59.0863 52.5433 57.3081C54.3256 55.5258 56.7821 54.4189 59.4809 54.4189ZM59.4809 57.5948H163.022C166.667 57.5948 169.649 60.5766 169.649 64.2219V132.947C169.649 136.592 166.667 139.573 163.022 139.573H59.4809C55.8359 139.573 52.8541 136.592 52.8541 132.947V64.2219C52.8541 60.5765 55.8359 57.5948 59.4809 57.5948Z" fill="#FEFEFE"/>
<path fill-rule="evenodd" clip-rule="evenodd" d="M88.1757 158.185H104.524V141.368L107.709 138.176H114.389L117.574 141.368V158.185H135.541C136.709 158.185 137.841 158.454 138.722 158.887C140.286 159.655 141.257 160.963 141.257 162.621V163.665C141.257 165.045 140.529 166.084 139.359 166.662H139.346C138.852 166.905 138.252 167.057 137.667 167.057H86.0497C85.4683 167.057 84.8678 166.905 84.3708 166.662C83.1959 166.084 82.4608 165.039 82.4608 163.665V162.621C82.4608 160.963 83.4312 159.655 84.9954 158.887C85.8768 158.454 87.0083 158.185 88.1757 158.185ZM88.1757 161.378H107.709V141.368H114.389V161.378H135.541C136.933 161.378 138.072 161.937 138.072 162.621V163.665C138.072 163.775 137.89 163.864 137.667 163.864H86.0497C85.8273 163.864 85.6457 163.775 85.6457 163.665V162.621C85.6457 161.937 86.7841 161.378 88.1757 161.378Z" fill="#FEFEFE"/>
<path fill-rule="evenodd" clip-rule="evenodd" d="M152.277 75.7852H199.725C203.117 75.7852 206.204 77.1765 208.446 79.4178C210.681 81.6534 212.069 84.7342 212.069 88.1185V154.151C212.069 157.536 210.681 160.617 208.446 162.852C206.204 165.093 203.117 166.485 199.725 166.485H152.277C148.885 166.485 145.798 165.093 143.556 162.852C141.321 160.617 139.933 157.536 139.933 154.151V88.1185C139.933 84.7342 141.321 81.6534 143.556 79.4178C145.798 77.1765 148.885 75.7852 152.277 75.7852ZM152.277 78.967H199.725C204.758 78.967 208.876 83.0851 208.876 88.1185V154.151C208.876 159.185 204.758 163.303 199.725 163.303H152.277C147.243 163.303 143.125 159.185 143.125 154.151V88.1185C143.125 83.0852 147.243 78.967 152.277 78.967Z" fill="#FEFEFE"/>
<path fill-rule="evenodd" clip-rule="evenodd" d="M207.454 109.48H225.086C226.388 109.48 227.609 110.049 228.526 110.966C229.725 112.166 230.47 113.969 230.47 116.084V160.088C230.47 162.204 229.725 164.006 228.526 165.206C227.609 166.123 226.388 166.692 225.086 166.692H207.454C206.153 166.692 204.932 166.123 204.014 165.206C202.815 164.006 202.07 162.204 202.07 160.088V116.084C202.07 113.969 202.815 112.166 204.014 110.966C204.932 110.049 206.153 109.48 207.454 109.48ZM207.454 112.684H225.086C226.957 112.684 228.487 114.214 228.487 116.084V160.088C228.487 161.958 226.957 163.488 225.086 163.488H207.454C205.584 163.488 204.053 161.958 204.053 160.088V116.084C204.053 114.214 205.584 112.684 207.454 112.684Z" fill="#FEFEFE"/>
<path d="M163.919 57.5948H58.5835C55.4193 57.5948 52.8541 60.5619 52.8541 64.2219V132.947C52.8541 136.607 55.4193 139.574 58.5835 139.574H163.919C167.084 139.574 169.649 136.607 169.649 132.947V64.2219C169.649 60.5619 167.084 57.5948 163.919 57.5948Z" fill="#373435"/>
<path d="M161.297 59.7438H61.2066V59.1433H161.297V59.7438ZM167.927 65.7717H167.323L167.315 65.4624L167.292 65.1576L167.254 64.8565L167.2 64.5608L167.133 64.2699L167.051 63.9844L166.956 63.7047L166.848 63.4314L166.727 63.1646L166.593 62.9051L166.448 62.6522L166.29 62.4075L166.122 62.1712L165.943 61.9431L165.752 61.7241L165.552 61.5141L165.343 61.3143L165.123 61.1242L164.895 60.9447L164.659 60.7763L164.414 60.6191L164.162 60.4736L163.902 60.34L163.636 60.2193L163.362 60.1109L163.083 60.0159L162.797 59.9341L162.507 59.8669L162.211 59.8138L161.911 59.7752L161.606 59.7516L161.297 59.7438V59.1433L161.636 59.1518L161.972 59.1777L162.303 59.22L162.629 59.2785L162.949 59.353L163.264 59.4427L163.571 59.5474L163.872 59.6666L164.166 59.7999L164.451 59.9468L164.729 60.1067L164.998 60.2796L165.258 60.4649L165.509 60.6619L165.749 60.8707L165.98 61.0903L166.2 61.3209L166.408 61.5617L166.606 61.8122L166.791 62.0719L166.963 62.3408L167.123 62.6184L167.27 62.9038L167.403 63.1977L167.522 63.4983L167.627 63.8058L167.717 64.1202L167.791 64.44L167.85 64.7659L167.892 65.0966L167.918 65.4322L167.926 65.7717H167.927ZM167.323 131.397V65.7717H167.927V131.397H167.323ZM161.297 138.025V137.425L161.606 137.417L161.911 137.394L162.211 137.355L162.507 137.302L162.798 137.235L163.083 137.153L163.362 137.058L163.636 136.949L163.902 136.829L164.162 136.695L164.414 136.55L164.659 136.392L164.896 136.224L165.123 136.044L165.343 135.854L165.553 135.655L165.752 135.445L165.943 135.226L166.122 134.997L166.291 134.761L166.448 134.516L166.593 134.264L166.727 134.004L166.848 133.737L166.956 133.464L167.051 133.184L167.133 132.899L167.2 132.608L167.254 132.312L167.292 132.011L167.316 131.706L167.324 131.397H167.927L167.919 131.737L167.893 132.072L167.85 132.403L167.792 132.729L167.717 133.048L167.628 133.363L167.523 133.67L167.404 133.971L167.271 134.265L167.124 134.55L166.964 134.828L166.791 135.097L166.606 135.356L166.409 135.607L166.2 135.848L165.981 136.078L165.75 136.298L165.509 136.507L165.259 136.704L164.999 136.889L164.73 137.062L164.452 137.222L164.166 137.369L163.873 137.502L163.572 137.621L163.264 137.726L162.95 137.816L162.629 137.89L162.304 137.949L161.973 137.991L161.637 138.017L161.297 138.025H161.297ZM61.2066 137.425H161.297V138.025H61.2066V137.425ZM54.5768 131.397H55.1803L55.1881 131.706L55.2117 132.011L55.25 132.312L55.3034 132.608L55.3707 132.899L55.4525 133.184L55.5475 133.464L55.6558 133.737L55.7768 134.004L55.9105 134.264L56.0559 134.516L56.2132 134.761L56.3819 134.997L56.5611 135.226L56.7515 135.445L56.9512 135.655L57.161 135.854L57.3804 136.044L57.6082 136.224L57.8445 136.392L58.0892 136.55L58.3418 136.695L58.6013 136.829L58.8681 136.949L59.1414 137.058L59.4208 137.153L59.7063 137.235L59.9965 137.302L60.2922 137.355L60.5931 137.394L60.8978 137.417L61.2068 137.425V138.025L60.8671 138.017L60.5315 137.991L60.2005 137.949L59.8746 137.89L59.5542 137.816L59.2398 137.726L58.932 137.621L58.6314 137.502L58.3375 137.369L58.0521 137.222L57.7742 137.062L57.5054 136.889L57.2456 136.704L56.9949 136.507L56.7544 136.298L56.5236 136.078L56.3039 135.848L56.0955 135.607L55.8981 135.356L55.7131 135.097L55.5403 134.828L55.3804 134.55L55.2334 134.265L55.1004 133.971L54.9812 133.67L54.8764 133.363L54.7868 133.048L54.7123 132.729L54.6541 132.403L54.6116 132.072L54.5856 131.737L54.5772 131.397H54.5768ZM55.1803 65.7717V131.397H54.5768V65.7717H55.1803ZM61.2066 59.1433V59.7438L60.8976 59.7516L60.5929 59.7752L60.292 59.8138L59.9963 59.8669L59.7061 59.9341L59.4206 60.0159L59.1412 60.1109L58.8679 60.2193L58.6011 60.34L58.3416 60.4736L58.089 60.6191L57.8443 60.7763L57.608 60.9447L57.3802 61.1242L57.1608 61.3143L56.951 61.5141L56.7513 61.7241L56.5609 61.9431L56.3817 62.1712L56.213 62.4075L56.0557 62.6522L55.9103 62.9051L55.7766 63.1646L55.6556 63.4314L55.5473 63.7047L55.4523 63.9844L55.3705 64.2699L55.3032 64.5608L55.2498 64.8565L55.2115 65.1576L55.1879 65.4624L55.1801 65.7717H54.5766L54.5851 65.4322L54.611 65.0966L54.6535 64.7659L54.7118 64.44L54.7863 64.1202L54.8759 63.8058L54.9806 63.4983L55.0998 63.1977L55.2329 62.9038L55.3798 62.6184L55.5397 62.3408L55.7126 62.0719L55.8976 61.8122L56.0949 61.5617L56.3034 61.3209L56.5231 61.0903L56.7539 60.8707L56.9944 60.6619L57.2451 60.4649L57.5049 60.2796L57.7737 60.1067L58.0515 59.9468L58.337 59.7999L58.6309 59.6666L58.9315 59.5474L59.2392 59.4427L59.5536 59.353L59.8741 59.2785L60.1999 59.22L60.531 59.1777L60.8665 59.1518L61.2063 59.1433H61.2066Z" fill="#E6E7E8"/>
<path fill-rule="evenodd" clip-rule="evenodd" d="M61.2066 59.4435H161.297C164.778 59.4435 167.625 62.291 167.625 65.7716V131.397C167.625 134.878 164.778 137.725 161.297 137.725H61.2066C57.726 137.725 54.8784 134.878 54.8784 131.397V65.7716C54.8784 62.291 57.726 59.4435 61.2066 59.4435Z" fill="#FEFEFE"/>
<path fill-rule="evenodd" clip-rule="evenodd" d="M152.277 77.3756H199.725C202.68 77.3756 205.368 78.5865 207.317 80.5363C209.265 82.4834 210.473 85.1681 210.473 88.1185V154.151C210.473 157.102 209.265 159.786 207.317 161.734C205.368 163.683 202.68 164.894 199.725 164.894H152.277C149.323 164.894 146.635 163.683 144.685 161.734C142.738 159.786 141.529 157.102 141.529 154.151V88.1185C141.529 85.1681 142.738 82.4835 144.685 80.5363C146.635 78.5865 149.323 77.3756 152.277 77.3756ZM152.277 78.967H199.725C204.759 78.967 208.877 83.0851 208.877 88.1185V154.151C208.877 159.185 204.759 163.303 199.725 163.303H152.277C147.244 163.303 143.126 159.185 143.126 154.151V88.1185C143.126 83.0852 147.244 78.967 152.277 78.967Z" fill="#373435"/>
<path fill-rule="evenodd" clip-rule="evenodd" d="M152.277 78.9669H199.725C204.759 78.9669 208.877 83.085 208.877 88.1183V154.151C208.877 159.185 204.759 163.303 199.725 163.303H152.277C147.244 163.303 143.126 159.185 143.126 154.151V88.1183C143.126 83.085 147.244 78.9669 152.277 78.9669Z" fill="#FEFEFE"/>
<path fill-rule="evenodd" clip-rule="evenodd" d="M206.816 111.482H224.448C225.52 111.482 226.51 111.935 227.239 112.664C228.074 113.499 228.592 114.707 228.592 116.084V160.088C228.592 161.466 228.074 162.673 227.239 163.508C226.51 164.237 225.52 164.69 224.448 164.69H206.816C205.743 164.69 204.754 164.237 204.025 163.508C203.19 162.673 202.671 161.466 202.671 160.088V116.084C202.671 114.707 203.19 113.499 204.025 112.664C204.754 111.935 205.743 111.482 206.816 111.482ZM206.816 112.684H224.448C226.318 112.684 227.848 114.214 227.848 116.084V160.088C227.848 161.958 226.318 163.489 224.448 163.489H206.816C204.945 163.489 203.415 161.958 203.415 160.088V116.084C203.415 114.214 204.945 112.684 206.816 112.684Z" fill="#373435"/>
<path fill-rule="evenodd" clip-rule="evenodd" d="M206.816 112.684H224.448C226.318 112.684 227.848 114.214 227.848 116.084V160.088C227.848 161.958 226.318 163.489 224.448 163.489H206.816C204.945 163.489 203.415 161.958 203.415 160.088V116.084C203.415 114.214 204.945 112.684 206.816 112.684Z" fill="#FEFEFE"/>
<path fill-rule="evenodd" clip-rule="evenodd" d="M156.645 111.008H168.562C169.763 111.008 170.856 111.5 171.648 112.292C171.649 112.293 171.65 112.294 171.651 112.295C172.443 113.087 172.935 114.18 172.935 115.381V135.64C172.935 136.518 172.669 137.342 172.214 138.033C171.872 138.553 171.421 138.997 170.894 139.332L171.746 142.865C171.849 143.292 171.587 143.722 171.16 143.825C170.931 143.881 170.701 143.831 170.521 143.707L170.521 143.707L165.198 140.013H156.645C155.443 140.013 154.351 139.521 153.559 138.73C153.558 138.729 153.556 138.727 153.556 138.727C152.764 137.934 152.272 136.842 152.272 135.64V115.382C152.272 114.182 152.764 113.089 153.556 112.295C153.556 112.295 153.557 112.294 153.557 112.294C153.558 112.293 153.558 112.293 153.559 112.292C153.56 112.292 153.56 112.291 153.561 112.29C154.354 111.499 155.446 111.008 156.645 111.008H156.645ZM156.645 111.806H168.562C170.528 111.806 172.137 113.415 172.137 115.382V135.64C172.137 137.105 171.245 138.371 169.977 138.922L170.973 143.052L165.444 139.215H156.645C154.678 139.215 153.07 137.607 153.07 135.64V115.381C153.07 113.415 154.678 111.806 156.645 111.806L156.645 111.806Z" fill="#F58634"/>
<path fill-rule="evenodd" clip-rule="evenodd" d="M156.645 111.806H168.562C170.528 111.806 172.137 113.415 172.137 115.382V135.64C172.137 137.105 171.245 138.371 169.977 138.922L170.973 143.052L165.444 139.215H156.645C154.678 139.215 153.07 137.607 153.07 135.64V115.381C153.07 113.415 154.678 111.806 156.645 111.806L156.645 111.806Z" fill="#FEFEFE"/>
<path d="M170.216 114.747H154.99C154.92 114.747 154.863 114.795 154.863 114.853V116.174C154.863 116.232 154.92 116.28 154.99 116.28H170.216C170.287 116.28 170.344 116.232 170.344 116.174V114.853C170.344 114.795 170.287 114.747 170.216 114.747Z" fill="#96989A"/>
<path d="M170.216 117.915H154.99C154.92 117.915 154.863 117.962 154.863 118.02V119.342C154.863 119.4 154.92 119.447 154.99 119.447H170.216C170.287 119.447 170.344 119.4 170.344 119.342V118.02C170.344 117.962 170.287 117.915 170.216 117.915Z" fill="#96989A"/>
<path d="M168.394 121.083H154.975C154.913 121.083 154.863 121.13 154.863 121.188V122.51C154.863 122.568 154.913 122.615 154.975 122.615H168.394C168.456 122.615 168.506 122.568 168.506 122.51V121.188C168.506 121.13 168.456 121.083 168.394 121.083Z" fill="#96989A"/>
<path d="M162.25 124.251H154.924C154.89 124.251 154.863 124.298 154.863 124.356V125.678C154.863 125.736 154.89 125.783 154.924 125.783H162.25C162.284 125.783 162.311 125.736 162.311 125.678V124.356C162.311 124.298 162.284 124.251 162.25 124.251Z" fill="#96989A"/>
<path d="M170.216 127.419H154.99C154.92 127.419 154.863 127.466 154.863 127.524V128.846C154.863 128.904 154.92 128.951 154.99 128.951H170.216C170.287 128.951 170.344 128.904 170.344 128.846V127.524C170.344 127.466 170.287 127.419 170.216 127.419Z" fill="#96989A"/>
<path d="M167.766 130.587H154.97C154.911 130.587 154.863 130.634 154.863 130.692V132.014C154.863 132.072 154.911 132.119 154.97 132.119H167.766C167.825 132.119 167.873 132.072 167.873 132.014V130.692C167.873 130.634 167.825 130.587 167.766 130.587Z" fill="#96989A"/>
<path d="M170.216 133.755H154.99C154.92 133.755 154.863 133.802 154.863 133.86V135.182C154.863 135.24 154.92 135.287 154.99 135.287H170.216C170.287 135.287 170.344 135.24 170.344 135.182V133.86C170.344 133.802 170.287 133.755 170.216 133.755Z" fill="#96989A"/>
<path fill-rule="evenodd" clip-rule="evenodd" d="M194.66 98.4193H180.421C179.026 98.4193 177.758 98.9896 176.84 99.908C175.921 100.827 175.351 102.095 175.351 103.49V127.696C175.351 128.715 175.659 129.67 176.186 130.471C176.604 131.106 177.16 131.642 177.81 132.036L176.766 136.366C176.663 136.793 176.926 137.223 177.353 137.326C177.582 137.382 177.812 137.332 177.992 137.208L184.393 132.767H194.66C196.055 132.767 197.323 132.196 198.242 131.278C199.16 130.359 199.731 129.091 199.731 127.696V103.49C199.731 102.095 199.16 100.826 198.242 99.908C197.323 98.9894 196.055 98.4192 194.66 98.4192L194.66 98.4193ZM194.66 99.2177H180.421C178.072 99.2177 176.149 101.14 176.149 103.49V127.696C176.149 129.446 177.215 130.959 178.73 131.617L177.54 136.553L184.147 131.968H194.66C197.01 131.968 198.932 130.046 198.932 127.696V103.49C198.932 101.14 197.01 99.2177 194.66 99.2177Z" fill="#00AFEF"/>
<path fill-rule="evenodd" clip-rule="evenodd" d="M194.66 99.2177H180.421C178.072 99.2177 176.149 101.14 176.149 103.49V127.696C176.149 129.446 177.215 130.959 178.73 131.617L177.54 136.553L184.147 131.968H194.66C197.01 131.968 198.932 130.046 198.932 127.696V103.49C198.932 101.14 197.01 99.2177 194.66 99.2177Z" fill="#FEFEFE"/>
<path d="M196.637 102.732H178.444C178.36 102.732 178.291 102.788 178.291 102.858V104.437C178.291 104.506 178.36 104.563 178.444 104.563H196.637C196.721 104.563 196.79 104.506 196.79 104.437V102.858C196.79 102.788 196.721 102.732 196.637 102.732Z" fill="#96989A"/>
<path d="M196.637 106.517H178.444C178.36 106.517 178.291 106.574 178.291 106.643V108.222C178.291 108.292 178.36 108.348 178.444 108.348H196.637C196.721 108.348 196.79 108.292 196.79 108.222V106.643C196.79 106.574 196.721 106.517 196.637 106.517Z" fill="#96989A"/>
<path d="M194.46 110.302H178.426C178.352 110.302 178.292 110.359 178.292 110.428V112.007C178.292 112.077 178.352 112.133 178.426 112.133H194.46C194.534 112.133 194.594 112.077 194.594 112.007V110.428C194.594 110.359 194.534 110.302 194.46 110.302Z" fill="#96989A"/>
<path d="M187.118 114.088H178.365C178.324 114.088 178.292 114.144 178.292 114.213V115.793C178.292 115.862 178.324 115.918 178.365 115.918H187.118C187.159 115.918 187.192 115.862 187.192 115.793V114.213C187.192 114.144 187.159 114.088 187.118 114.088Z" fill="#96989A"/>
<path d="M196.637 117.873H178.444C178.36 117.873 178.291 117.929 178.291 117.999V119.578C178.291 119.647 178.36 119.704 178.444 119.704H196.637C196.721 119.704 196.79 119.647 196.79 119.578V117.999C196.79 117.929 196.721 117.873 196.637 117.873Z" fill="#96989A"/>
<path d="M193.709 121.658H178.42C178.349 121.658 178.292 121.715 178.292 121.784V123.363C178.292 123.433 178.349 123.489 178.42 123.489H193.709C193.78 123.489 193.837 123.433 193.837 123.363V121.784C193.837 121.715 193.78 121.658 193.709 121.658Z" fill="#96989A"/>
<path d="M196.637 125.444H178.444C178.36 125.444 178.291 125.5 178.291 125.569V127.149C178.291 127.218 178.36 127.274 178.444 127.274H196.637C196.721 127.274 196.79 127.218 196.79 127.149V125.569C196.79 125.5 196.721 125.444 196.637 125.444Z" fill="#96989A"/>
<path fill-rule="evenodd" clip-rule="evenodd" d="M207.083 133.613H212.346C212.876 133.613 213.359 133.831 213.709 134.18C213.71 134.181 213.71 134.181 213.711 134.182C214.06 134.531 214.278 135.015 214.278 135.545V144.492C214.278 144.88 214.16 145.244 213.959 145.549C213.808 145.779 213.609 145.975 213.376 146.123L213.753 147.683C213.798 147.872 213.682 148.062 213.494 148.108C213.391 148.133 213.287 148.109 213.207 148.052L210.861 146.424H207.083C206.553 146.424 206.07 146.206 205.72 145.857C205.72 145.856 205.719 145.856 205.719 145.856L205.719 145.857C205.369 145.507 205.152 145.023 205.152 144.492V135.545C205.152 135.015 205.369 134.531 205.719 134.182C205.719 134.181 205.719 134.181 205.72 134.18C206.07 133.831 206.553 133.613 207.083 133.613H207.083ZM207.083 133.966H212.346C213.215 133.966 213.925 134.676 213.925 135.545V144.492C213.925 145.139 213.531 145.698 212.971 145.942L213.411 147.766L210.969 146.071H207.083C206.215 146.071 205.504 145.361 205.504 144.492V135.545C205.504 134.676 206.215 133.966 207.083 133.966L207.083 133.966Z" fill="#F58634"/>
<path fill-rule="evenodd" clip-rule="evenodd" d="M207.083 133.966H212.346C213.215 133.966 213.925 134.676 213.925 135.545V144.492C213.925 145.139 213.531 145.698 212.971 145.942L213.411 147.766L210.969 146.071H207.083C206.215 146.071 205.504 145.361 205.504 144.492V135.545C205.504 134.676 206.215 133.966 207.083 133.966L207.083 133.966Z" fill="#FEFEFE"/>
<path d="M213.077 135.265H206.352C206.321 135.265 206.296 135.286 206.296 135.311V135.895C206.296 135.921 206.321 135.941 206.352 135.941H213.077C213.108 135.941 213.133 135.921 213.133 135.895V135.311C213.133 135.286 213.108 135.265 213.077 135.265Z" fill="#96989A"/>
<path d="M213.077 136.664H206.352C206.321 136.664 206.296 136.685 206.296 136.71V137.294C206.296 137.32 206.321 137.341 206.352 137.341H213.077C213.108 137.341 213.133 137.32 213.133 137.294V136.71C213.133 136.685 213.108 136.664 213.077 136.664Z" fill="#96989A"/>
<path d="M212.272 138.063H206.345C206.318 138.063 206.296 138.084 206.296 138.109V138.693C206.296 138.719 206.318 138.74 206.345 138.74H212.272C212.299 138.74 212.322 138.719 212.322 138.693V138.109C212.322 138.084 212.299 138.063 212.272 138.063Z" fill="#96989A"/>
<path d="M209.559 139.462H206.323C206.308 139.462 206.296 139.483 206.296 139.509V140.092C206.296 140.118 206.308 140.139 206.323 140.139H209.559C209.574 140.139 209.586 140.118 209.586 140.092V139.509C209.586 139.483 209.574 139.462 209.559 139.462Z" fill="#96989A"/>
<path d="M213.077 140.861H206.352C206.321 140.861 206.296 140.882 206.296 140.908V141.491C206.296 141.517 206.321 141.538 206.352 141.538H213.077C213.108 141.538 213.133 141.517 213.133 141.491V140.908C213.133 140.882 213.108 140.861 213.077 140.861Z" fill="#96989A"/>
<path d="M211.994 142.26H206.343C206.317 142.26 206.296 142.281 206.296 142.307V142.891C206.296 142.916 206.317 142.937 206.343 142.937H211.994C212.021 142.937 212.042 142.916 212.042 142.891V142.307C212.042 142.281 212.021 142.26 211.994 142.26Z" fill="#96989A"/>
<path d="M213.077 143.66H206.352C206.321 143.66 206.296 143.68 206.296 143.706V144.29C206.296 144.316 206.321 144.336 206.352 144.336H213.077C213.108 144.336 213.133 144.316 213.133 144.29V143.706C213.133 143.68 213.108 143.66 213.077 143.66Z" fill="#96989A"/>
<path fill-rule="evenodd" clip-rule="evenodd" d="M223.873 128.053H217.584C216.97 128.053 216.41 128.305 216.004 128.711L216.003 128.712L216.002 128.712C216.002 128.713 216.002 128.713 216.001 128.713C215.596 129.119 215.345 129.679 215.345 130.293V140.984C215.345 141.434 215.481 141.856 215.714 142.209C215.898 142.489 216.144 142.726 216.431 142.9L215.97 144.813C215.925 145.001 216.041 145.191 216.229 145.237C216.33 145.261 216.432 145.239 216.511 145.184L216.511 145.184L219.338 143.223H223.873C224.487 143.223 225.047 142.971 225.453 142.566L225.454 142.565L225.455 142.564C225.455 142.564 225.455 142.563 225.456 142.563C225.861 142.157 226.112 141.598 226.112 140.984V130.293C226.112 129.678 225.86 129.118 225.454 128.712L225.455 128.711C225.049 128.306 224.489 128.053 223.873 128.053H223.873ZM223.873 128.406H217.584C216.546 128.406 215.697 129.255 215.697 130.293V140.984C215.697 141.757 216.168 142.425 216.837 142.716L216.312 144.895L219.23 142.871H223.873C224.911 142.871 225.76 142.021 225.76 140.984V130.293C225.76 129.255 224.911 128.406 223.873 128.406V128.406Z" fill="#00AFEF"/>
<path fill-rule="evenodd" clip-rule="evenodd" d="M223.873 128.406H217.584C216.546 128.406 215.697 129.255 215.697 130.293V140.984C215.697 141.756 216.168 142.425 216.837 142.715L216.312 144.895L219.23 142.871H223.873C224.911 142.871 225.76 142.021 225.76 140.984V130.293C225.76 129.255 224.911 128.406 223.873 128.406V128.406Z" fill="#FEFEFE"/>
<path d="M224.746 129.958H216.711C216.674 129.958 216.643 129.983 216.643 130.014V130.711C216.643 130.742 216.674 130.767 216.711 130.767H224.746C224.783 130.767 224.813 130.742 224.813 130.711V130.014C224.813 129.983 224.783 129.958 224.746 129.958Z" fill="#96989A"/>
<path d="M224.746 131.63H216.711C216.674 131.63 216.643 131.655 216.643 131.685V132.383C216.643 132.413 216.674 132.438 216.711 132.438H224.746C224.783 132.438 224.813 132.413 224.813 132.383V131.685C224.813 131.655 224.783 131.63 224.746 131.63Z" fill="#96989A"/>
<path d="M223.784 133.302H216.703C216.67 133.302 216.643 133.326 216.643 133.357V134.055C216.643 134.085 216.67 134.11 216.703 134.11H223.784C223.817 134.11 223.844 134.085 223.844 134.055V133.357C223.844 133.326 223.817 133.302 223.784 133.302Z" fill="#96989A"/>
<path d="M220.542 134.973H216.676C216.658 134.973 216.643 134.998 216.643 135.029V135.726C216.643 135.757 216.658 135.782 216.676 135.782H220.542C220.56 135.782 220.574 135.757 220.574 135.726V135.029C220.574 134.998 220.56 134.973 220.542 134.973Z" fill="#96989A"/>
<path d="M224.746 136.645H216.711C216.674 136.645 216.643 136.67 216.643 136.701V137.398C216.643 137.429 216.674 137.454 216.711 137.454H224.746C224.783 137.454 224.813 137.429 224.813 137.398V136.701C224.813 136.67 224.783 136.645 224.746 136.645Z" fill="#96989A"/>
<path d="M223.453 138.317H216.7C216.669 138.317 216.643 138.342 216.643 138.373V139.07C216.643 139.101 216.669 139.126 216.7 139.126H223.453C223.484 139.126 223.509 139.101 223.509 139.07V138.373C223.509 138.342 223.484 138.317 223.453 138.317Z" fill="#96989A"/>
<path d="M224.746 139.989H216.711C216.674 139.989 216.643 140.014 216.643 140.044V140.742C216.643 140.773 216.674 140.797 216.711 140.797H224.746C224.783 140.797 224.813 140.773 224.813 140.742V140.044C224.813 140.014 224.783 139.989 224.746 139.989Z" fill="#96989A"/>
<path fill-rule="evenodd" clip-rule="evenodd" d="M91.2906 85.5238H105.003C106.385 85.5238 107.642 86.0902 108.554 87.0011C108.554 87.0017 108.555 87.0023 108.556 87.0029L108.557 87.0011C109.469 87.9127 110.035 89.1715 110.035 90.5559V113.866C110.035 114.877 109.729 115.824 109.206 116.62C108.811 117.218 108.292 117.729 107.686 118.114L108.667 122.18C108.785 122.671 108.483 123.166 107.992 123.285C107.728 123.348 107.464 123.291 107.257 123.148L107.256 123.148L101.132 118.899H91.2906C89.9095 118.899 88.6512 118.332 87.7379 117.419L87.7361 117.421C86.8248 116.51 86.2585 115.251 86.2585 113.866V90.5559C86.2585 89.1739 86.8246 87.9163 87.7358 87.0047C87.737 87.0035 87.7382 87.0023 87.7394 87.0011C88.651 86.0899 89.9086 85.5238 91.2906 85.5238ZM91.2906 86.4423H105.003C107.265 86.4423 109.116 88.2932 109.116 90.5559V113.866C109.116 115.551 108.09 117.009 106.631 117.642L107.777 122.395L101.415 117.98H91.2906C89.0278 117.98 87.177 116.129 87.177 113.866V90.5559C87.177 88.2931 89.0279 86.4423 91.2906 86.4423Z" fill="#F58634"/>
<path fill-rule="evenodd" clip-rule="evenodd" d="M91.2906 86.4423H105.003C107.265 86.4423 109.116 88.2931 109.116 90.5558V113.866C109.116 115.551 108.09 117.008 106.631 117.642L107.777 122.395L101.415 117.98H91.2906C89.0279 117.98 87.177 116.129 87.177 113.866V90.5558C87.177 88.2931 89.0279 86.4423 91.2906 86.4423Z" fill="#FEFEFE"/>
<path d="M106.906 89.8264H89.3866C89.3055 89.8264 89.2398 89.8805 89.2398 89.9474V91.4682C89.2398 91.535 89.3055 91.5892 89.3866 91.5892H106.906C106.987 91.5892 107.053 91.535 107.053 91.4682V89.9474C107.053 89.8805 106.987 89.8264 106.906 89.8264Z" fill="#96989A"/>
<path d="M106.906 93.4714H89.3866C89.3055 93.4714 89.2398 93.5256 89.2398 93.5925V95.1133C89.2398 95.1801 89.3055 95.2343 89.3866 95.2343H106.906C106.987 95.2343 107.053 95.1801 107.053 95.1133V93.5925C107.053 93.5256 106.987 93.4714 106.906 93.4714Z" fill="#96989A"/>
<path d="M104.809 97.1166H89.3692C89.2978 97.1166 89.2399 97.1708 89.2399 97.2376V98.7584C89.2399 98.8252 89.2978 98.8794 89.3692 98.8794H104.809C104.881 98.8794 104.939 98.8252 104.939 98.7584V97.2376C104.939 97.1708 104.881 97.1166 104.809 97.1166Z" fill="#96989A"/>
<path d="M97.74 100.762H89.3105C89.2715 100.762 89.2399 100.816 89.2399 100.883V102.404C89.2399 102.47 89.2715 102.525 89.3105 102.525H97.74C97.779 102.525 97.8106 102.47 97.8106 102.404V100.883C97.8106 100.816 97.779 100.762 97.74 100.762Z" fill="#96989A"/>
<path d="M106.906 104.407H89.3866C89.3055 104.407 89.2398 104.461 89.2398 104.528V106.049C89.2398 106.115 89.3055 106.17 89.3866 106.17H106.906C106.987 106.17 107.053 106.115 107.053 106.049V104.528C107.053 104.461 106.987 104.407 106.906 104.407Z" fill="#96989A"/>
<path d="M104.086 108.052H89.3632C89.2951 108.052 89.2399 108.106 89.2399 108.173V109.694C89.2399 109.761 89.2951 109.815 89.3632 109.815H104.086C104.154 109.815 104.21 109.761 104.21 109.694V108.173C104.21 108.106 104.154 108.052 104.086 108.052Z" fill="#96989A"/>
<path d="M106.906 111.697H89.3866C89.3055 111.697 89.2398 111.751 89.2398 111.818V113.339C89.2398 113.406 89.3055 113.46 89.3866 113.46H106.906C106.987 113.46 107.053 113.406 107.053 113.339V111.818C107.053 111.751 106.987 111.697 106.906 111.697Z" fill="#96989A"/>
<path fill-rule="evenodd" clip-rule="evenodd" d="M135.032 71.0387H118.648C117.044 71.0387 115.584 71.6946 114.527 72.7516C113.471 73.808 112.814 75.2673 112.814 76.8725V104.726C112.814 105.898 113.169 106.996 113.775 107.918C114.255 108.647 114.896 109.265 115.645 109.718L114.444 114.701C114.325 115.193 114.627 115.688 115.118 115.806C115.382 115.87 115.646 115.812 115.854 115.67L115.854 115.67L123.218 110.56H135.032C136.637 110.56 138.097 109.904 139.154 108.847C140.21 107.79 140.867 106.331 140.867 104.726V76.8726C140.867 75.2673 140.21 73.8081 139.154 72.7517C138.097 71.6947 136.637 71.0388 135.032 71.0388L135.032 71.0387ZM135.032 71.9572H118.648C115.945 71.9572 113.733 74.169 113.733 76.8726V104.726C113.733 106.739 114.96 108.48 116.703 109.237L115.334 114.916L122.935 109.641H135.032C137.736 109.641 139.948 107.429 139.948 104.726V76.8726C139.948 74.169 137.736 71.9572 135.032 71.9572H135.032Z" fill="#00AFEF"/>
<path fill-rule="evenodd" clip-rule="evenodd" d="M135.032 71.9572H118.648C115.945 71.9572 113.733 74.1689 113.733 76.8725V104.726C113.733 106.739 114.96 108.48 116.703 109.237L115.334 114.916L122.935 109.641H135.032C137.736 109.641 139.948 107.429 139.948 104.726V76.8725C139.948 74.1689 137.736 71.9572 135.032 71.9572H135.032Z" fill="#FEFEFE"/>
<path d="M137.307 76.0009H116.373C116.276 76.0009 116.198 76.0657 116.198 76.1456V77.9626C116.198 78.0425 116.276 78.1073 116.373 78.1073H137.307C137.404 78.1073 137.482 78.0425 137.482 77.9626V76.1456C137.482 76.0657 137.404 76.0009 137.307 76.0009Z" fill="#96989A"/>
<path d="M137.307 80.3564H116.373C116.276 80.3564 116.198 80.4212 116.198 80.501V82.3181C116.198 82.398 116.276 82.4628 116.373 82.4628H137.307C137.404 82.4628 137.482 82.398 137.482 82.3181V80.501C137.482 80.4212 137.404 80.3564 137.307 80.3564Z" fill="#96989A"/>
<path d="M134.802 84.7119H116.352C116.267 84.7119 116.198 84.7766 116.198 84.8565V86.6736C116.198 86.7535 116.267 86.8182 116.352 86.8182H134.802C134.887 86.8182 134.956 86.7535 134.956 86.6736V84.8565C134.956 84.7766 134.887 84.7119 134.802 84.7119Z" fill="#96989A"/>
<path d="M126.354 89.0673H116.282C116.236 89.0673 116.198 89.1321 116.198 89.212V91.0291C116.198 91.109 116.236 91.1737 116.282 91.1737H126.354C126.401 91.1737 126.439 91.109 126.439 91.0291V89.212C126.439 89.1321 126.401 89.0673 126.354 89.0673Z" fill="#96989A"/>
<path d="M137.307 93.4229H116.373C116.276 93.4229 116.198 93.4877 116.198 93.5676V95.3846C116.198 95.4645 116.276 95.5293 116.373 95.5293H137.307C137.404 95.5293 137.482 95.4645 137.482 95.3846V93.5676C137.482 93.4877 137.404 93.4229 137.307 93.4229Z" fill="#96989A"/>
<path d="M133.938 97.7783H116.345C116.264 97.7783 116.198 97.8431 116.198 97.923V99.7401C116.198 99.8199 116.264 99.8847 116.345 99.8847H133.938C134.019 99.8847 134.085 99.8199 134.085 99.7401V97.923C134.085 97.8431 134.019 97.7783 133.938 97.7783Z" fill="#96989A"/>
<path d="M137.307 102.134H116.373C116.276 102.134 116.198 102.199 116.198 102.279V104.096C116.198 104.175 116.276 104.24 116.373 104.24H137.307C137.404 104.24 137.482 104.175 137.482 104.096V102.279C137.482 102.199 137.404 102.134 137.307 102.134Z" fill="#96989A"/>
</svg>
